<svg xmlns="http://www.w3.org/2000/svg" width="154" height="154" fill="none"><path fill="#000" d="M138.125 47.863c.099.115-.476 0 7.888 1.48v-.484l-7.497-1.494c-10.034-11.445-23.924-15.623-39.255-15.178-1.15-3.833-6.554-21.762-7.52-24.246-1.073-2.76-2.906-4.047-5.765-4.047-2.69 0-42.16 10.578-44.46 11.214-4.361 1.173-17.845 4.515-26.829 6.83-8.555 2.216-7.612 7.673-7.021 10.931 3.296 18.55 11.114 45.924 23.701 74.93a29.99 29.99 0 0 0-1.395 11.384c1.058 14.395 12.18 24.775 23.625 27.948l.828 2.407h.82c-1.004-2.752-.935-2.974-1.257-3.066-11.828-3.396-21.992-13.99-23.08-27.366-.767-9.636 3.832-19.662 10.37-25.603 1.956-1.763 6.133-4.6 7.52-2.391-6.04 9.635-10.31 20.627-11.314 28.324a2.86 2.86 0 0 1 2.798 1.149c.169.23.1.683-.283.299a2.904 2.904 0 0 0-2.147-.766.55.55 0 0 0-.368.207c-.237.329 0 .82.315 1.088.653.492 1.431.79 2.246.859a.813.813 0 0 0 .69-.291 76.35 76.35 0 0 0 6.722-9.782 30.695 30.695 0 0 0 3.917 8.432l-1.548 2.844a.126.126 0 0 0 .042.173c.014.008.03.014.046.017a.134.134 0 0 0 .049-.003.106.106 0 0 0 .044-.02.129.129 0 0 0 .033-.036l2.086-2.814a.267.267 0 0 0 0-.291 32.886 32.886 0 0 1-3.067-5.665 30.38 30.38 0 0 1-1.786-6.086c-2.552-15.116 14.227-6.316 18.275 14.902 1.947 10.118-.935 16.097-.935 16.588a.166.166 0 0 0 .044.099.167.167 0 0 0 .278-.046 31.634 31.634 0 0 0 1.533-14.618 12.42 12.42 0 0 0 3.687-.391c1.172 3.067 1.44 5.834.268 9a.32.32 0 0 0 0 .306l10.448 14.948h.958L71.044 134.36c.147-.368.275-.745.383-1.126 0 0 19.93-5.604 25.181-7.382 3.38-1.15 17.286-5.619 22.016-7.122 4.952-1.571 7.029-2.981 7.918-5.365.889-2.384-.437-5.719-3.465-13.162-1.602-3.948-9.965-26.285-10.486-27.596 4.599-.084 10.793-2.376 14.564-4.768l18.827 9.452v-.767l-18.834-9.82c-2.883 1.672-7.382 4.684-14.687 5.52-4.646-12.365-3.979-10.134-6.508-18.183a73.556 73.556 0 0 0 3.173-.444l6.339 4.875c.035.028.08.042.124.038a.168.168 0 0 0 .091-.298l-6.224-5.26c-.238-.19-.315 0-3.71.292-3.695.376-12.058.828-15.017-1.387-1.533-1.196-1.204-2.706.107-4.178 5.366-5.78 20.919-7.88 29.282-8.172a.14.14 0 0 0 .157-.073.14.14 0 0 0 0-.12.13.13 0 0 0-.039-.05.14.14 0 0 0-.118-.026 72.449 72.449 0 0 0-18.021 2.3c-.889-2.912-1.802-5.91-2.69-8.853 28.369.169 36.947 14.043 38.718 15.178ZM15.285 24.138C24.721 21.7 77.613 7.841 84.781 6.362a4.73 4.73 0 0 1 2.935.1c1.189.505 1.695 1.64 2.3 3.342C73.75 13.345 20.696 27.319 9.643 30.89c-.337-2.728.13-5.327 5.642-6.753Zm-5.619 6.9c7.398-2.3 32.61-8.939 40.137-10.909 30.593-8.064 40.22-10.187 40.236-10.195.437 1.31 1.096 3.396 1.893 5.987-15.124 2.99-67.456 17.178-81.055 21.463-.39-1.778-1.004-4.768-1.21-6.332v-.015Zm1.25 6.484C20.95 34.456 77.843 18.95 91.978 16.06c.767 2.522 1.695 5.519 2.668 8.73-11.69 2.5-68.867 17.524-81.66 21.464a337.88 337.88 0 0 1-2.07-8.716v-.015Zm38.143 53.206c-1.71-2.36-5.94.384-8.171 2.3a31.27 31.27 0 0 0-5.68 6.684c-1.28-.46-2.354-3.066-3.503-5.918a98.69 98.69 0 0 1-4.17-12.264c-.307-1.342-.353-2.377.72-3.273 1.31-1.12 6.899-2.913 8.547-3.442 3.143-1.012 6.684-1.84 9.896-2.553 1.273-.276 2.63-.245 3.388.567 1.127 1.18 3.174 7.175 4.331 10.548a70.342 70.342 0 0 0-3.687 4.837 45.08 45.08 0 0 0-8.662-4.308c.767-1.35 4.002-7.152 5.014-9.038a.177.177 0 0 0-.307-.176c-2.123 3.197-3.871 6.033-5.48 8.915-3.795-1.403-6.9-2.3-10.464-3.265a.178.178 0 1 0-.115.337c2.445.966 6.776 2.384 10.164 3.664a68.986 68.986 0 0 0-5.028 11.291.176.176 0 0 0 .322.13c2.797-6.07 5.135-10.447 5.496-11.122a59.738 59.738 0 0 1 8.715 4.078c-.46.629-.904 1.31-1.326 2.008Zm3.833 10.556c.337-.805.667-1.61.981-2.415 2.1.084 6.255.422 7.39 2.2 1.134 1.778-1.234 3.611-3.373 4.308a15.694 15.694 0 0 0-4.998-4.093Zm5.55 4.768c2.89.536 9.658 1.778 10.157 4.683.398 2.193-2.898 3.442-5.274 3.703a37.98 37.98 0 0 0-4.86-8.386h-.023Zm7.895 19.209a39.986 39.986 0 0 0-2.146-8.685c2.76.989 9.145 3.833 8.217 6.539-.597 1.771-4.009 2.177-6.048 2.146h-.023Zm58.051-12.709c-.506 1.364-1.771 2.514-6.477 4.009-23.81 7.558-22.422 7.574-46.131 14.204a10.86 10.86 0 0 0-1.357-5.588 3.591 3.591 0 0 0 2.415-1.939c1.104-3.174-5.81-6.133-8.915-7.336-.315-.828-.376-.943-.43-1.073 2.63-.376 5.918-1.771 5.504-4.155a2.669 2.669 0 0 0-.337-.912s47.963-14.19 49.956-14.695c3.618 9.383 6.554 15.431 5.795 17.485h-.023ZM90.507 47.395c-2.001 2.246-.974 3.664-.982 3.764.239.4.554.75.928 1.027a6.997 6.997 0 0 0 1.755 1.02c-11.72 3.58-62.864 18.297-63.079 18.366-2.82.767-4.684 1.319-6.132-2.79 3.066-3.564 13.269-15.438 15.33-16.91a4.239 4.239 0 0 1 2.515-.843c3.166-.092 19.248 7.481 22.061 6.132 1.932-.935 8.624-11.452 8.693-11.552 4.79-7.382 4.17-6.96 15.078-5.182 2.43.399 5.749.935 10.065 1.618l.33 1.188c-2.477.989-4.968 2.376-6.54 4.155l-.022.007ZM22.774 68.284c-1.31-3.833-4.852-15.17-4.645-16.864a3.173 3.173 0 0 1 2.3-2.584c2.537-.712 68.805-18.826 70.622-18.826 1.449 0 2.008.766 2.56 2.17a98.495 98.495 0 0 1 2.974 9.413C80.488 38.94 79.238 38.41 76.97 38.94c-1.908.445-2.76 1.533-5.902 6.309-2.353 3.633-7.152 10.686-8.432 11.322-1.104.537-1.694.352-4.952-.667-4.17-1.31-6.447-2.047-11.307-3.97-2.928-1.166-5.78-2.43-8.432-.553-2.414 1.756-13.261 14.603-15.17 16.903Zm77.13-26.132c-.766.245-1.586.529-2.406.859a105.26 105.26 0 0 0-3.496-10.97c-.62-1.533-1.31-2.414-2.982-2.437-.927 0-40.857 10.317-70.737 18.826a3.641 3.641 0 0 0-2.606 2.944c-.26 1.97 3.189 13.031 4.775 17.316 1.863 5.029 3.917 4.032 7.543 3.066 15.001-3.91 47.526-13.445 62.91-18.274 3.312 1.104 7.275 1.02 10.733.766 1.28 4.101 2.299 7.244 2.851 8.64 1.02 2.598 10.218 27.12 12.096 32.026-3.641.904-5.45 1.487-49.986 14.71-1.648-2.545-6.807-3.764-9.866-4.132 1.694-.766 3.335-1.993 3.22-3.833-.115-1.84-2.982-2.583-3.917-2.813a20.503 20.503 0 0 0-3.94-.521 71.664 71.664 0 0 0 4-14.465c.223-1.403-2.145-2.3-2.904-1.456l-.66.766c-1.786-5.289-3.35-9.59-4.361-10.67-.767-.866-2.361-.698-3.526-.522-4.017.63-16.175 3.979-18.566 6.003-.828.82-1.296 1.433-.813 3.541a95.059 95.059 0 0 0 4.163 12.372c.912 2.23 2.192 5.489 3.633 6.01a35.643 35.643 0 0 0-2.56 4.829c-7.29-16.619-12.265-29.129-19.486-58.258 11.89-3.61 72.255-19.416 81.668-21.463.66 2.093 4.201 13.668 5.22 17.14Z"/><path fill="#000" d="M58.58 79.552c-.567-.207-1.702 1.533-1.986 2.016a.092.092 0 0 0 .054.138 2.991 2.991 0 0 1 1.22.59.092.092 0 0 0 .106-.023c.238-.505 1.173-2.49.606-2.72ZM17.17 31.696a16.697 16.697 0 0 0-4.254 1.45 19.23 19.23 0 0 0 1.204-2.132.076.076 0 0 0-.085-.103.077.077 0 0 0-.045.026 20.497 20.497 0 0 0-1.357 2.361c-.13.276 2.146.905 2.445.951a.076.076 0 0 0 .046-.138 9.827 9.827 0 0 0-2.17-.767 34.334 34.334 0 0 1 4.247-1.471c.138-.085.1-.2-.03-.177Zm8.034-2.07a18.125 18.125 0 0 0-2.66-1.157.077.077 0 0 0-.092.096.076.076 0 0 0 .031.042c.74.404 1.508.752 2.3 1.043a14.614 14.614 0 0 0-4.255 1.073.077.077 0 0 0 .062.138c1.012-.322 2.476-.606 4.377-.997-.494.598-.933 1.24-1.311 1.917a.085.085 0 0 0 .032.092.085.085 0 0 0 .098 0c.549-.65 1.034-1.35 1.449-2.093a.093.093 0 0 0 .007-.127.093.093 0 0 0-.038-.026Zm6.846-1.011a1.87 1.87 0 0 1-1.702 1.763 1.932 1.932 0 0 1-1.986-1.319 1.855 1.855 0 0 1 3.32-1.533 6.733 6.733 0 0 0-1.112.039.077.077 0 0 0 0 .153 5.98 5.98 0 0 0 1.28 0 .091.091 0 0 0 .07-.069 4.2 4.2 0 0 0 .068-1.35.077.077 0 0 0-.076-.076.076.076 0 0 0-.077.077 3.984 3.984 0 0 0-.084 1.08c-1.403-2.023-4.324-.352-3.68 1.825.698 2.445 4.415 1.817 4.14-.536a.085.085 0 1 0-.161-.054Zm-17.708-2.491a.996.996 0 1 0 0 1.993.996.996 0 0 0 0-1.993Zm3.519-1.058a.996.996 0 1 0 0 1.992.996.996 0 0 0 0-1.992Zm3.526-1.035a.996.996 0 1 0 0 1.993.996.996 0 0 0 0-1.993Zm66.207-12.035c-.598 0-45.173 11.33-48.89 12.326-2.3.621-2.83.667-3.29 1.434a1.778 1.778 0 0 0 1.534 2.713 7.881 7.881 0 0 0 1.763-.437c9.789-2.675 48.385-12.264 48.86-12.357a2.154 2.154 0 0 0 1.533-.935 1.809 1.809 0 0 0-1.51-2.744Zm1.372 2.63a2.009 2.009 0 0 1-1.434.843c-55.804 13.974-50.055 12.84-50.592 12.84a1.626 1.626 0 0 1-1.372-2.454c.406-.659.767-.69 3.166-1.334 4.292-1.157 48.292-12.318 48.837-12.318a1.61 1.61 0 0 1 1.395 2.422Z"/><path fill="#000" d="M39.6 26.89a2.816 2.816 0 0 0-.667-.383.92.92 0 1 0-.092.153c.216.145.447.266.69.36a.077.077 0 0 0 .069-.13Zm-1.533 0a.767.767 0 1 1 .023 0h-.023ZM86.45 13.767c-.16-1.066-.536-.981-.682-.399-.035.131-.061.264-.076.399-.253 0-.82-.07-.943.16s.13.354.322.438c.13.056.266.097.406.122-.176.238-.399.69-.169.836.23.146.66-.307.851-.514.2.169.59.453.813.315.222-.138-.13-.552-.33-.767.26-.053.652-.176.59-.43-.061-.252-.544-.183-.782-.16Zm.085.537c-.046 0-.062.038 0 .084.061.046.498.529.383.636-.115.107-.544-.222-.705-.337a.07.07 0 0 0-.077 0c-.253.245-.644.582-.766.49-.123-.092.214-.636.245-.72a.039.039 0 0 0 0-.054c-.138-.053-.72-.23-.682-.421.038-.192.766-.123.85-.115.085.007.062-.039.07-.1.145-.767.275-.713.337-.606.094.212.173.43.237.652v.038s.66 0 .706.13c.046.13-.414.284-.598.322Zm-29.597 65.18c-1.44-4.876-2.514-6.946-2-8.61 1.027-2.981 11.498-5.526 14.986-6.33 1.188-.277 3.878-.905 5.02-.66 1.143.245 1.833.912 4.462 8.815a83.756 83.756 0 0 1 2.721 9.904 2.805 2.805 0 0 1-.33 2.369c-1.21 1.61-9.896 3.986-11.843 4.522-9.467 2.599-8.324 2.208-11.153-4.883a.053.053 0 0 0-.054-.053.054.054 0 0 0-.053.053c1.242 3.833 1.694 6.033 3.733 6.554 1.533.407 5.971-1.004 7.596-1.464 10.218-2.936 11.33-3.756 11.981-4.599a3.067 3.067 0 0 0 .376-2.56 83.55 83.55 0 0 0-2.721-9.965C77.015 64.68 76.34 63.892 75 63.6c-1.166-.253-3.512.292-5.129.667-3.488.82-14.028 3.358-15.147 6.5-.62 1.863 1.295 6.708 2.1 8.716.031.108.138.07.115 0Zm32.103 3.763c2.2-.13 12.005-2.905 16.864-5.029 1.641-.72 2.461-1.448 2.07-3.189a134.38 134.38 0 0 0-5.902-16.572 3.92 3.92 0 0 0-1.694-2.131c-1.763-.843-10.31 1.94-13.154 2.859-1.802.582-4.883 1.571-6.133 2.813-1.104 1.058-.95 2.407-.536 3.879 4.806 16.971 5.795 17.523 8.485 17.37Zm-7.85-21.096c1.25-1.203 4.324-2.177 6.08-2.744 2.437-.766 11.36-3.625 13.031-2.851a3.75 3.75 0 0 1 1.579 2.023 129.418 129.418 0 0 1 5.841 16.527c.314 1.671-.345 2.185-1.901 2.867-4.116 1.802-14.434 4.883-16.757 5.036-2.667.169-3.58-.766-8.34-17.155-.429-1.403-.582-2.721.468-3.703ZM28.9 35.462a.37.37 0 0 0-.452-.277L14.856 38.78a.396.396 0 1 0 .199.767l13.583-3.595a.375.375 0 0 0 .26-.49Zm-2.951 3.832a.366.366 0 0 0-.453-.268l-9.888 2.614a.376.376 0 0 0-.26.475.36.36 0 0 0 .452.26l9.888-2.613a.376.376 0 0 0 .26-.468Zm8.623-5.504a.376.376 0 0 0 .46.26l13.584-3.594a.377.377 0 0 0-.046-.737.377.377 0 0 0-.146.008L34.84 33.352a.376.376 0 0 0-.269.437Zm11.36.07a.383.383 0 0 0-.46-.27l-9.888 2.623a.365.365 0 0 0-.276.319c-.005.05 0 .1.016.148a.376.376 0 0 0 .452.268l9.896-2.621a.383.383 0 0 0 .26-.468Zm8.624-5.436a.366.366 0 0 0 .453.269l13.583-3.596a.384.384 0 0 0 .268-.475.383.383 0 0 0-.46-.26l-13.583 3.556a.37.37 0 0 0-.26.506Zm11.368 0a.375.375 0 0 0-.46-.26l-9.888 2.614a.396.396 0 0 0 .2.766l9.888-2.621a.369.369 0 0 0 .26-.499Zm8.609-5.465a.369.369 0 0 0 .452.26l13.59-3.595a.375.375 0 0 0 .261-.467.374.374 0 0 0-.46-.269l-13.583 3.596a.384.384 0 0 0-.26.475Zm11.322.038a.37.37 0 0 0-.453-.268l-9.858 2.63a.377.377 0 0 0 .192.727l9.889-2.614a.368.368 0 0 0 .23-.475Zm-2.967 65.985a.377.377 0 0 0-.475-.245l-17.577 5.473a.377.377 0 0 0 .222.72l17.577-5.473a.383.383 0 0 0 .253-.475Zm-3.932 5.228a.375.375 0 0 0-.476-.246l-12.64 3.933a.375.375 0 0 0-.245.475.383.383 0 0 0 .475.253l12.633-3.94a.383.383 0 0 0 .253-.475Zm5.404 1.885-17.577 5.481a.379.379 0 0 0 .23.721l17.577-5.473a.377.377 0 0 0 .245-.476.383.383 0 0 0-.475-.253Zm23.479-14.924L90.261 86.68a.377.377 0 0 0 .223.72l17.599-5.503a.399.399 0 1 0-.222-.767l-.023.039Zm-3.495 5.465a.374.374 0 0 0-.182-.221.373.373 0 0 0-.286-.024l-12.656 3.932a.383.383 0 0 0-.253.475.375.375 0 0 0 .476.246l12.64-3.933a.38.38 0 0 0 .232-.182.381.381 0 0 0 .029-.293ZM91.986 94.47a.376.376 0 0 0 .468.253l17.577-5.473a.385.385 0 0 0 .297-.489.377.377 0 0 0-.363-.271.385.385 0 0 0-.157.032l-17.577 5.473a.375.375 0 0 0-.245.475Zm-21.464 19.356 8.586-2.607a.383.383 0 0 0-.222-.728l-8.586 2.606a.384.384 0 1 0 .222.729Zm.215 2.667a.383.383 0 0 0 .475.253l11.575-3.518a.384.384 0 0 0-.214-.728l-11.606 3.518a.383.383 0 0 0-.23.475Zm2.852 2.668 6.853-2.085a.365.365 0 0 0 .269-.321.385.385 0 0 0-.085-.277.371.371 0 0 0-.253-.136.36.36 0 0 0-.146.013l-6.899 2.078a.4.4 0 0 0-.285.339.4.4 0 0 0 .507.427l.039-.038Zm.828 2.637a.386.386 0 0 0 .475.253l9.812-2.974a.386.386 0 0 0 .213-.464.385.385 0 0 0-.436-.265l-9.811 2.975a.382.382 0 0 0-.253.475Zm7.435 1.004-8.179 2.476a.402.402 0 0 0-.272.494.397.397 0 0 0 .494.272l8.18-2.483a.379.379 0 0 0 .065-.694.378.378 0 0 0-.288-.027v-.038Zm4.209-13.499 7.075-2.008a.401.401 0 0 0 .28-.487.398.398 0 0 0-.487-.28l-7.076 2.047a.36.36 0 0 0-.134.065.364.364 0 0 0-.146.254.373.373 0 0 0 .197.374.391.391 0 0 0 .29.035Zm.444 2.675a.374.374 0 0 0 .468.261l8.194-2.3a.395.395 0 0 0 .094-.727.392.392 0 0 0-.3-.039l-8.195 2.299a.379.379 0 0 0-.25.192.364.364 0 0 0-.01.314Zm8.425.767a.391.391 0 0 0-.475-.261l-6.777 1.924a.402.402 0 0 0-.24.186.396.396 0 0 0 .447.581l6.784-1.924a.394.394 0 0 0 .26-.506Zm-6.6 5.067a.374.374 0 0 0 .467.26l8.01-2.299a.373.373 0 0 0 .26-.468.38.38 0 0 0-.184-.235.395.395 0 0 0-.146-.044.39.39 0 0 0-.152.018l-8.01 2.3a.385.385 0 0 0-.246.468Zm6.722.881-5.534 1.572a.396.396 0 1 0 .207.766l5.534-1.571a.397.397 0 0 0-.207-.767ZM58.357 49.174a3.373 3.373 0 1 0 2.369-5.765 3.357 3.357 0 0 0-2.369 5.765Zm.33-4.446a2.921 2.921 0 1 1 4.106 4.155 2.921 2.921 0 0 1-4.106-4.155Z"/><path fill="#000" d="M73.91 65.363a85.932 85.932 0 0 0-5.442 10.648 86.867 86.867 0 0 0-9.965-4.446.192.192 0 0 0-.222.092.184.184 0 0 0 .084.237c3.94 1.955 9.781 4.883 9.781 4.883a97.736 97.736 0 0 0-3.963 11.092.176.176 0 0 0 .169.222c.291 0-.046 0 4.538-10.923 2.361 1.242 6.132 3.373 10.364 5.926a.18.18 0 1 0 .199-.3 81.332 81.332 0 0 0-10.241-6.392c1.35-3.159 2.99-6.715 5.013-10.87a.18.18 0 0 0-.073-.242.178.178 0 0 0-.241.073Zm9.49-.912c3.067 1.533 4.945 2.369 9.966 4.967a84.326 84.326 0 0 0-4.132 11.008.177.177 0 0 0 .338.107c1.594-3.878.996-2.752 4.545-10.731 3.066 1.64 6.523 3.61 10.195 5.833a.18.18 0 0 0 .249-.05c.027-.04.036-.088.027-.135a.18.18 0 0 0-.076-.114 82.348 82.348 0 0 0-10.073-6.286c1.625-3.518 3.427-7.09 4.868-10.072a.177.177 0 0 0-.203-.237.176.176 0 0 0-.104.068 102.653 102.653 0 0 0-5.297 9.85 86.663 86.663 0 0 0-10.149-4.53.178.178 0 1 0-.153.322Zm16.888 42.36a1.74 1.74 0 0 0 .375-1.87 1.737 1.737 0 0 0-1.57-1.082 1.715 1.715 0 0 0-1.403.763 1.713 1.713 0 0 0 .322 2.254 1.71 1.71 0 0 0 2.276-.065Zm-2.415-1.763a1.336 1.336 0 0 1 1.612-.707c.205.065.39.179.542.331a1.265 1.265 0 0 1 .37.922 1.264 1.264 0 0 1-.416.902 1.356 1.356 0 0 1-1.832 0 1.267 1.267 0 0 1-.276-1.418v-.03Zm5.55.506a1.68 1.68 0 0 0 1.893-.345 1.763 1.763 0 0 0 0-2.423 1.67 1.67 0 0 0-1.203-.515 1.676 1.676 0 0 0-1.204.515 1.739 1.739 0 0 0 .514 2.768Zm-.521-2.108a1.34 1.34 0 0 1 1.612-.707c.205.065.39.179.542.331a1.25 1.25 0 0 1-.046 1.824 1.347 1.347 0 0 1-1.825 0 1.247 1.247 0 0 1-.283-1.448Zm7.481.153a1.726 1.726 0 0 0-1.188-2.944 1.705 1.705 0 0 0-1.413.756 1.708 1.708 0 0 0 1.885 2.598c.269-.076.515-.217.716-.41Zm-2.414-1.756a1.329 1.329 0 0 1 .979-.749 1.339 1.339 0 0 1 1.175.374 1.244 1.244 0 0 1 .254 1.41 1.34 1.34 0 0 1-2.125.407 1.267 1.267 0 0 1-.395-.669 1.266 1.266 0 0 1 .073-.773h.039Zm5.481.506a1.675 1.675 0 0 0 1.893-.352 1.744 1.744 0 0 0-.544-2.802 1.67 1.67 0 0 0-2.284 1.06 1.743 1.743 0 0 0 .935 2.094Zm-.514-2.115a1.33 1.33 0 0 1 1.606-.703c.204.064.389.176.54.327a1.292 1.292 0 0 1 .275 1.294 1.301 1.301 0 0 1-1.004.86 1.299 1.299 0 0 1-1.236-.468 1.294 1.294 0 0 1-.181-1.31Z"/></svg>